<svg width="24" height="24" viewBox="0 0 24 24" fill="none" xmlns="http://www.w3.org/2000/svg">
  <circle cx="12" cy="8" r="6" fill="#666" opacity="0.7"/>
  <path d="M9 6c1-1 2-1 3 0s2 1 3 0" stroke="#444" stroke-width="2" fill="none"/>
  <path d="M8 9c1-1 3-1 4 0s3 1 4 0" stroke="#444" stroke-width="2" fill="none"/>
  <path d="M6 12c2 0 4 0 6-1s4-1 6 1" stroke="#666" stroke-width="1.5" fill="none"/>
  
  <!-- Lightning -->
  <path d="M10 16l2-4h-1l2-3-2 4h1l-2 3z" fill="#FFD700"/>
  <path d="M14 16l2-4h-1l2-3-2 4h1l-2 3z" fill="#FFD700"/>
  
  <!-- Rain -->
  <circle cx="8" cy="18" r="0.5" fill="#4A90E2"/>
  <circle cx="11" cy="19" r="0.5" fill="#4A90E2"/>
  <circle cx="14" cy="18" r="0.5" fill="#4A90E2"/>
  <circle cx="17" cy="19" r="0.5" fill="#4A90E2"/>
  
  <title>Storm Warning</title>
</svg>